HIERARCHY
ROOT Hips
{
  OFFSET 13.6774 106.653 -34.4427
  CHANNELS 6 Xposition Yposition Zposition Zrotation Xrotation Yrotation
  JOINT ToSpine
  {
    OFFSET -2.69724 7.43032 -0.144315
    CHANNELS 3 Zrotation Xrotation Yrotation
    JOINT Spine
    {
      OFFSET -0.0310711 10.7595 1.96963
      CHANNELS 3 Zrotation Xrotation Yrotation
      JOINT Spine1
      {
        OFFSET 19.9056 3.91189 0.764692
        CHANNELS 3 Zrotation Xrotation Yrotation
        JOINT Neck
        {
          OFFSET 25.9749 7.03908 -0.130764
          CHANNELS 3 Zrotation Xrotation Yrotation
          JOINT Head
          {
            OFFSET 9.52751 0.295786 -0.907742
            CHANNELS 3 Zrotation Xrotation Yrotation
            End Site
            {
              OFFSET 16.4037 0.713936 2.7358
            }
          }
        }
        JOINT LeftShoulder
        {
          OFFSET 17.7449 4.33886 11.7777
          CHANNELS 3 Zrotation Xrotation Yrotation
          JOINT LeftArm
          {
            OFFSET 0.911315 1.27913 9.80584
            CHANNELS 3 Zrotation Xrotation Yrotation
            JOINT LeftForeArm
            {
              OFFSET 28.6126 1.18197 -3.53199
              CHANNELS 3 Zrotation Xrotation Yrotation
              JOINT LeftHand
              {
                OFFSET 27.5088 0.0218783 0.327423
                CHANNELS 3 Zrotation Xrotation Yrotation
                End Site
                {
                  OFFSET 18.6038 -0.000155887 0.382096
                }
              }
            }
          }
        }
        JOINT RightShoulder
        {
          OFFSET 17.1009 2.89543 -12.2328
          CHANNELS 3 Zrotation Xrotation Yrotation
          JOINT RightArm
          {
            OFFSET 1.4228 0.178766 -10.211
            CHANNELS 3 Zrotation Xrotation Yrotation
            JOINT RightForeArm
            {
              OFFSET 28.733 1.87905 2.64907
              CHANNELS 3 Zrotation Xrotation Yrotation
              JOINT RightHand
              {
                OFFSET 27.4588 0.290562 -0.101845
                CHANNELS 3 Zrotation Xrotation Yrotation
                End Site
                {
                  OFFSET 17.8396 -0.255518 -0.000602873
                }
              }
            }
          }
        }
      }
    }
  }
  JOINT LeftUpLeg
  {
    OFFSET -5.61296 -2.22332 -10.2353
    CHANNELS 3 Zrotation Xrotation Yrotation
    JOINT LeftLeg
    {
      OFFSET 2.56703 -44.7417 -7.93097
      CHANNELS 3 Zrotation Xrotation Yrotation
      JOINT LeftFoot
      {
        OFFSET 3.16933 -46.5642 -3.96578
        CHANNELS 3 Zrotation Xrotation Yrotation
        JOINT LeftToeBase
        {
          OFFSET 0.346054 -6.02161 12.8035
          CHANNELS 3 Zrotation Xrotation Yrotation
          End Site
          {
            OFFSET 0.134235 -1.35082 5.13018
          }
        }
      }
    }
  }
  JOINT RightUpLeg
  {
    OFFSET -5.7928 -1.72406 10.6446
    CHANNELS 3 Zrotation Xrotation Yrotation
    JOINT RightLeg
    {
      OFFSET -2.57161 -44.7178 -7.85259
      CHANNELS 3 Zrotation Xrotation Yrotation
      JOINT RightFoot
      {
        OFFSET -3.10148 -46.5936 -4.03391
        CHANNELS 3 Zrotation Xrotation Yrotation
        JOINT RightToeBase
        {
          OFFSET -0.0828122 -6.13587 12.8035
          CHANNELS 3 Zrotation Xrotation Yrotation
          End Site
          {
            OFFSET -0.131328 -1.35082 5.13018
          }
        }
      }
    }
  }
}
MOTION
Frames: 15
Frame Time: 0.03333333333333333
0.0000 93.1000 0.0000 -65.4141 -43.8988 -158.2245 -71.1051 0.0505 87.8725 91.1368 76.6091 -1.0577 -5.8696 27.3960 2.3257 -144.7602 19.8726 180.2457 -156.2416 58.1700 177.3769 -1.3766 -17.3667 -32.4925 -110.4207 27.6073 -94.2190 20.0549 1.0283 -86.0264 0.3161 0.3495 0.0405 -2.2718 11.4942 34.0139 -76.4474 -27.8675 149.0508 18.4234 1.3094 95.5169 0.3284 0.3793 -0.2921 -37.8685 8.7434 97.4032 -2.7304 47.6956 -0.0751 1.0533 -11.0551 -1.6623 2.2893 -6.3214 1.4510 -52.2486 -8.9721 85.4430 -2.3639 45.8989 -22.6429 -18.1829 -7.7235 1.9714 -0.2021 -8.1246 6.8909 
0.0000 93.1000 0.0000 -65.0813 -39.7002 -160.6376 -71.0852 -0.1210 87.8753 93.1010 76.1688 -2.0923 -5.3858 26.9718 1.7783 -146.6630 19.5624 179.8628 -151.4609 56.6153 173.4892 -0.4081 -16.5492 -31.6232 -114.3936 25.0286 -92.2259 19.2239 0.7915 -85.8103 0.3252 -0.4965 0.7893 -2.4966 10.3332 37.5592 -70.3815 -22.7344 149.9265 17.1814 1.8632 98.1325 0.6934 -0.6640 -0.0566 -35.0174 10.2818 97.1930 -3.1863 48.7993 2.1454 0.2193 -11.4315 -0.7915 0.9167 -4.6202 1.5474 -52.1372 -10.8730 87.0806 -0.9197 39.4795 -19.7223 -19.2657 -8.5587 1.8129 -0.1232 -6.4132 4.9617 
0.0000 93.1000 0.0000 -65.1754 -34.8830 -161.5963 -71.1192 0.0177 87.8813 96.9354 75.4097 -3.8638 -5.2570 25.5608 3.3573 -147.4744 18.9402 -176.4614 -149.3030 55.9609 174.5069 -1.4555 -17.6123 -30.7924 -119.2740 19.8437 -88.4352 17.4578 1.1214 -85.8999 0.4489 0.3880 0.1269 -2.5486 9.8082 37.4041 -64.5611 -20.2539 150.0171 18.2414 3.6770 100.3990 -0.0054 0.3390 -0.4947 -32.8450 10.7145 96.3219 -3.0079 48.7925 3.9358 -0.2556 -10.7633 -1.3501 1.1298 -5.2033 2.9042 -51.7450 -12.4762 89.4811 -2.0242 35.8270 -14.2058 -18.7822 -4.7518 2.2741 0.0502 -8.9757 7.3269 
0.0000 93.1000 0.0000 -64.3786 -30.4181 -164.0974 -71.1057 -0.0551 87.8983 91.1788 74.4701 1.0093 -3.9427 24.1866 4.1301 -147.5777 16.8750 -173.0495 -150.3811 53.8976 175.9726 -1.0786 -17.3486 -29.3963 -123.2670 13.1795 -84.2946 15.5776 1.4026 -84.1316 0.2991 0.1720 0.6469 -2.5432 8.8273 38.2759 -58.4500 -17.9404 149.1246 16.0821 3.4678 102.0661 0.2340 0.0685 0.2065 -30.8938 12.2958 97.5004 -1.6352 47.8800 4.5020 -0.7872 -9.4268 -0.9585 1.2496 -5.1298 1.4028 -49.7658 -15.3963 87.1989 -3.8400 30.5887 0.5052 -17.6642 -1.9826 2.0390 1.2348 -14.2777 3.4028 
0.0000 93.1000 0.0000 -62.0312 -27.6329 -164.3628 -71.1042 -0.0999 87.9207 80.3307 72.6007 9.9498 -1.3517 22.2879 3.0975 -146.8373 15.6080 -169.6872 -149.3672 52.1569 176.4683 -0.8921 -17.6718 -28.3565 -126.4833 7.0191 -80.6908 14.0770 1.3079 -83.1737 0.0295 -0.0060 0.6364 -2.4951 8.1670 38.7962 -53.3700 -17.4667 148.8710 14.8776 3.1492 103.0013 0.3363 -0.1737 0.4133 -30.7851 15.4334 101.2641 -1.8577 46.1260 4.0190 -1.4306 -8.7280 -0.5914 1.1200 -3.2442 -0.6425 -48.1075 -17.0530 82.3137 -4.2227 27.9201 11.3592 -17.4337 0.5517 1.7560 2.1610 -20.4855 4.4469 
0.0000 93.1000 0.0000 -62.5159 -24.7311 -165.1569 -71.1138 -0.1755 87.9647 79.3681 70.4078 11.2251 0.3199 20.8011 1.6966 -147.0483 13.9831 -167.3587 -147.2648 50.5762 178.6676 -0.5169 -17.3345 -27.5766 -129.6972 0.7295 -77.8585 12.6002 1.1342 -81.6463 0.1930 -0.3257 0.8909 -2.3382 7.6753 38.9102 -48.4594 -16.5975 147.8552 15.5415 3.8051 104.3853 0.5854 -0.5549 0.5136 -30.9336 20.3470 105.5197 -2.0200 45.3990 1.1150 -1.1287 -5.8940 -0.1995 2.2869 -5.6023 -3.5020 -46.8843 -15.1747 80.9138 -2.6410 26.7781 8.6430 -14.3234 1.3154 1.0577 3.0908 -23.2398 13.9635 
0.0000 93.1000 0.0000 -62.7189 -22.0970 -165.2813 -71.1276 -0.0701 87.8741 81.5217 69.4711 8.6919 0.6727 19.6261 1.7362 -144.9495 12.9984 -166.5694 -145.1534 48.9937 -180.1416 -0.7636 -16.9106 -28.5865 -131.5734 -3.1657 -76.0675 12.9876 2.3316 -80.5236 0.2141 -0.1022 0.3517 -2.3176 7.2678 38.5027 -46.7154 -17.4043 146.0130 16.9900 5.5063 105.3362 0.2632 -0.2022 0.1224 -30.7807 24.6312 107.7015 -3.4016 45.8557 0.3582 -1.9923 -3.1395 -0.3406 3.2836 -7.5722 -3.5199 -46.1129 -13.1811 81.1339 -2.2363 25.0985 5.0685 -12.9598 0.0992 0.7891 3.2885 -24.1058 20.9133 
0.0000 93.1000 0.0000 -63.2749 -22.1560 -166.6118 -71.1188 -0.0419 87.8581 83.6977 68.6295 4.4929 0.8381 18.2582 2.3375 -143.9764 12.0576 -165.8625 -143.4875 46.7514 -179.4973 -1.0252 -17.3513 -28.9450 -134.6707 -6.1355 -74.6227 13.2774 2.2355 -80.0117 0.1977 0.1183 -0.0231 -2.1535 7.2785 37.4034 -45.7415 -18.0059 145.0655 17.0686 5.5454 105.8190 0.0389 0.0157 -0.0920 -30.0286 26.8448 107.4544 -3.0520 46.4687 -2.3937 -3.2318 -1.8773 -0.3305 3.4917 -7.3168 -1.3899 -46.0175 -11.7837 82.1595 -1.9730 26.4195 4.7622 -11.0470 -4.2719 0.5985 2.9560 -22.3651 20.9954 
0.0000 93.1000 0.0000 -64.1550 -22.7767 -168.1950 -71.0864 -0.0621 87.9326 85.7241 67.3432 2.3465 1.5543 17.5063 1.8233 -142.0380 11.3037 -167.4969 -139.9975 44.7651 180.2726 -1.3374 -17.7182 -29.8968 -136.5587 -8.1475 -74.2321 13.2068 1.6072 -79.4061 0.1759 0.4639 -0.1478 -1.9367 7.1335 35.3502 -45.0889 -19.3336 145.2943 16.6392 4.8843 106.5050 -0.3278 0.2535 -0.1294 -30.4077 27.0919 105.2420 -3.9132 46.5345 -7.0304 -4.0592 -3.8345 -0.6560 3.4509 -7.9803 4.0907 -44.7982 -12.3137 83.1634 -2.6946 30.4911 5.8432 -8.7837 -8.6228 0.6999 2.1520 -19.9904 20.7669 
0.0000 93.1000 0.0000 -65.0416 -21.8634 -166.5664 -71.1080 -0.1277 87.9335 86.3095 66.6908 4.8483 2.5469 16.8728 -0.3756 -140.9408 11.3428 -166.7059 -140.8933 44.2897 178.4238 -1.1252 -18.0328 -32.7572 -138.2808 -8.9249 -74.5239 13.1454 1.6580 -79.7385 -0.0907 0.1066 0.0631 -1.8220 7.1818 33.0707 -45.0500 -19.8472 143.1899 15.9276 5.2406 108.1331 0.2691 -0.1340 -0.0664 -31.5539 27.5236 103.2639 -3.7884 44.5792 -9.8089 -3.6730 -4.8965 -0.3806 2.4522 -8.0304 6.3292 -44.9915 -10.8594 84.3615 -0.4174 33.0800 3.7940 -9.7677 -10.2202 0.5749 2.8200 -22.0525 19.6111 
0.0000 93.1000 0.0000 -65.9576 -20.8371 -166.5372 -71.1430 -0.1263 87.9366 86.3521 66.5137 7.5050 3.6438 16.7828 -1.8295 -141.0217 10.9761 -164.5836 -140.3760 44.0113 179.4230 -1.2575 -18.4371 -35.5411 -140.3711 -8.8100 -72.5124 11.9032 0.9160 -80.8635 -0.0099 0.0944 0.4200 -1.6757 7.1853 32.5806 -45.0510 -18.9859 141.5809 14.8284 5.1839 109.3150 0.1591 -0.1271 -0.2311 -32.9101 27.8202 102.1372 -3.2707 43.6088 -5.9070 -1.1676 -3.4060 -0.6005 1.8883 -6.3515 2.3588 -45.4524 -8.2948 85.3655 0.8205 33.9649 1.9259 -11.7133 -10.7878 0.6714 3.1579 -22.3007 16.7047 
0.0000 93.1000 0.0000 -67.2325 -21.5099 -167.3217 -71.1313 -0.0604 87.9134 87.3443 66.7312 5.8944 4.6447 16.5875 -1.2133 -139.7991 11.1443 -163.8961 -140.9531 43.3853 179.1034 -1.6147 -18.5664 -36.4722 -140.5112 -8.0126 -70.6105 12.1350 0.9677 -81.7777 0.2881 0.4388 0.2933 -1.7542 7.1886 34.4156 -45.1853 -17.8933 137.7596 13.1770 4.9510 110.3094 -0.2933 0.2532 -0.3198 -34.8770 27.9793 102.2073 -2.7515 42.5901 -5.3982 -1.6046 -2.4792 -0.7204 2.2450 -7.2521 0.5232 -46.2286 -7.2987 87.3364 0.5824 35.1518 0.3091 -12.6583 -12.1076 0.8097 3.2660 -21.9094 16.0557 
0.0000 93.1000 0.0000 -68.8455 -21.8828 -167.2654 -71.1306 -0.1336 87.9191 88.4257 66.7242 4.9297 4.8402 16.4369 -1.0624 -138.9234 11.3468 -164.0735 -139.0436 43.1383 179.3215 -1.2268 -18.1481 -36.8470 -139.3033 -7.1839 -69.5399 12.4237 1.2078 -81.6176 0.2067 0.0342 0.4482 -1.8321 7.1472 36.2543 -43.9746 -17.9030 135.2512 12.3628 5.2794 111.2033 0.1748 -0.1568 0.0590 -35.9199 28.2127 102.2364 -3.1471 41.4475 -4.8095 -1.3881 -1.7696 -0.3485 2.0597 -6.4048 -1.3987 -47.0776 -7.0143 88.9401 0.9435 36.9118 -2.1303 -11.9946 -12.7246 0.5173 3.1522 -21.9448 16.8336 
0.0000 93.1000 0.0000 -68.8595 -22.6369 -167.7129 -71.1350 -0.0711 87.9202 86.4632 66.5877 6.5559 5.6174 16.5757 -1.7246 -137.8417 11.1165 -164.0403 -140.1426 43.1216 177.9697 -1.5899 -18.2981 -37.6657 -138.3517 -6.8979 -69.8049 12.0034 1.7255 -81.0385 0.0269 0.3611 0.3527 -1.7903 7.0797 36.2490 -42.9764 -18.8866 135.9321 13.8504 6.1206 110.9512 0.0954 0.2214 -0.0922 -37.7012 28.1763 102.2256 -3.1292 40.4525 -4.7907 -1.2312 -0.8340 -0.5702 2.8202 -8.2531 0.0090 -46.3280 -7.1131 88.3491 0.8539 39.0568 -2.5208 -12.0785 -13.6833 0.7217 2.6912 -21.2369 17.8758 
0.0000 93.1000 0.0000 -69.1380 -22.5805 -169.1065 -71.1326 -0.0542 87.9138 84.5656 66.6878 8.5925 6.1937 16.8772 -1.1807 -136.8956 11.0820 -163.8209 -138.8291 43.1504 177.7462 -1.7985 -18.3390 -38.5055 -138.3242 -6.6803 -69.9748 11.9706 1.8498 -80.5631 0.0961 0.4719 0.3324 -1.7950 7.0969 36.3259 -42.8779 -19.6743 135.0713 14.9360 6.3747 110.6732 -0.0648 0.3054 -0.4254 -38.5989 27.3148 102.4735 -3.0541 39.8452 -4.7404 -2.7301 -0.8291 -0.3569 3.0587 -8.2987 -0.3026 -46.9718 -7.1090 89.6558 0.8339 40.2413 -3.7404 -11.1050 -14.7011 0.6315 2.2094 -20.3509 16.7714 
